<svg xmlns="http://www.w3.org/2000/svg" version="1.1" xmlns:xlink="http://www.w3.org/1999/xlink" xmlns:svgjs="http://svgjs.com/svgjs" width="1440" height="560" preserveAspectRatio="none" viewBox="0 0 1440 560"><g mask="url(&quot;#SvgjsMask1014&quot;)" fill="none"><path d="M-79.23 382.05L-79.23 382.05" stroke="rgba(97, 97, 98, 1)" stroke-width="1.5"></path><path d="M-79.23 382.05L-71.37 514.64" stroke="rgba(97, 97, 98, 1)" stroke-width="1.5"></path><path d="M-79.23 382.05L80.4 338.36" stroke="rgba(97, 97, 98, 1)" stroke-width="1.5"></path><path d="M-79.23 382.05L111.02 497.23" stroke="rgba(97, 97, 98, 1)" stroke-width="1.5"></path><path d="M-79.23 382.05L206.84 396.73" stroke="rgba(97, 97, 98, 1)" stroke-width="1.5"></path><path d="M-71.37 514.64L-71.37 514.64" stroke="rgba(97, 97, 98, 1)" stroke-width="1.5"></path><path d="M-71.37 514.64L111.02 497.23" stroke="rgba(97, 97, 98, 1)" stroke-width="1.5"></path><path d="M-71.37 514.64L-50.27 709.71" stroke="rgba(97, 97, 98, 1)" stroke-width="1.5"></path><path d="M-71.37 514.64L63.96 681.03" stroke="rgba(97, 97, 98, 1)" stroke-width="1.5"></path><path d="M-50.27 709.71L-50.27 709.71" stroke="rgba(97, 97, 98, 1)" stroke-width="1.5"></path><path d="M-50.27 709.71L63.96 681.03" stroke="rgba(97, 97, 98, 1)" stroke-width="1.5"></path><path d="M80.4 338.36L80.4 338.36" stroke="rgba(97, 97, 98, 1)" stroke-width="1.5"></path><path d="M80.4 338.36L206.84 396.73" stroke="rgba(97, 97, 98, 1)" stroke-width="1.5"></path><path d="M111.02 497.23L111.02 497.23" stroke="rgba(97, 97, 98, 1)" stroke-width="1.5"></path><path d="M111.02 497.23L190.42 544.81" stroke="rgba(97, 97, 98, 1)" stroke-width="1.5"></path><path d="M111.02 497.23L206.84 396.73" stroke="rgba(97, 97, 98, 1)" stroke-width="1.5"></path><path d="M63.96 681.03L63.96 681.03" stroke="rgba(97, 97, 98, 1)" stroke-width="1.5"></path><path d="M63.96 681.03L188.15 664.38" stroke="rgba(97, 97, 98, 1)" stroke-width="1.5"></path><path d="M63.96 681.03L190.42 544.81" stroke="rgba(97, 97, 98, 1)" stroke-width="1.5"></path><path d="M63.96 681.03L111.02 497.23" stroke="rgba(97, 97, 98, 1)" stroke-width="1.5"></path><path d="M206.84 396.73L206.84 396.73" stroke="rgba(97, 97, 98, 1)" stroke-width="1.5"></path><path d="M206.84 396.73L344.84 354.74" stroke="rgba(97, 97, 98, 1)" stroke-width="1.5"></path><path d="M206.84 396.73L190.42 544.81" stroke="rgba(97, 97, 98, 1)" stroke-width="1.5"></path><path d="M190.42 544.81L190.42 544.81" stroke="rgba(97, 97, 98, 1)" stroke-width="1.5"></path><path d="M190.42 544.81L188.15 664.38" stroke="rgba(97, 97, 98, 1)" stroke-width="1.5"></path><path d="M190.42 544.81L404.91 510.3" stroke="rgba(97, 97, 98, 1)" stroke-width="1.5"></path><path d="M190.42 544.81L80.4 338.36" stroke="rgba(97, 97, 98, 1)" stroke-width="1.5"></path><path d="M188.15 664.38L188.15 664.38" stroke="rgba(97, 97, 98, 1)" stroke-width="1.5"></path><path d="M188.15 664.38L111.02 497.23" stroke="rgba(97, 97, 98, 1)" stroke-width="1.5"></path><path d="M188.15 664.38L390.12 685.86" stroke="rgba(97, 97, 98, 1)" stroke-width="1.5"></path><path d="M188.15 664.38L-50.27 709.71" stroke="rgba(97, 97, 98, 1)" stroke-width="1.5"></path><path d="M188.15 664.38L404.91 510.3" stroke="rgba(97, 97, 98, 1)" stroke-width="1.5"></path><path d="M344.84 354.74L344.84 354.74" stroke="rgba(97, 97, 98, 1)" stroke-width="1.5"></path><path d="M344.84 354.74L404.91 510.3" stroke="rgba(97, 97, 98, 1)" stroke-width="1.5"></path><path d="M404.91 510.3L404.91 510.3" stroke="rgba(97, 97, 98, 1)" stroke-width="1.5"></path><path d="M404.91 510.3L390.12 685.86" stroke="rgba(97, 97, 98, 1)" stroke-width="1.5"></path><path d="M404.91 510.3L533.01 373.72" stroke="rgba(97, 97, 98, 1)" stroke-width="1.5"></path><path d="M404.91 510.3L528.25 669.72" stroke="rgba(97, 97, 98, 1)" stroke-width="1.5"></path><path d="M390.12 685.86L390.12 685.86" stroke="rgba(97, 97, 98, 1)" stroke-width="1.5"></path><path d="M390.12 685.86L528.25 669.72" stroke="rgba(97, 97, 98, 1)" stroke-width="1.5"></path><path d="M533.01 373.72L533.01 373.72" stroke="rgba(97, 97, 98, 1)" stroke-width="1.5"></path><path d="M533.01 373.72L650.01 395.78" stroke="rgba(97, 97, 98, 1)" stroke-width="1.5"></path><path d="M533.01 373.72L344.84 354.74" stroke="rgba(97, 97, 98, 1)" stroke-width="1.5"></path><path d="M533.01 373.72L674.23 521.71" stroke="rgba(97, 97, 98, 1)" stroke-width="1.5"></path><path d="M528.25 669.72L528.25 669.72" stroke="rgba(97, 97, 98, 1)" stroke-width="1.5"></path><path d="M528.25 669.72L675.29 709.59" stroke="rgba(97, 97, 98, 1)" stroke-width="1.5"></path><path d="M650.01 395.78L650.01 395.78" stroke="rgba(97, 97, 98, 1)" stroke-width="1.5"></path><path d="M650.01 395.78L674.23 521.71" stroke="rgba(97, 97, 98, 1)" stroke-width="1.5"></path><path d="M650.01 395.78L844.27 374.3" stroke="rgba(97, 97, 98, 1)" stroke-width="1.5"></path><path d="M674.23 521.71L674.23 521.71" stroke="rgba(97, 97, 98, 1)" stroke-width="1.5"></path><path d="M674.23 521.71L822.22 506.26" stroke="rgba(97, 97, 98, 1)" stroke-width="1.5"></path><path d="M674.23 521.71L675.29 709.59" stroke="rgba(97, 97, 98, 1)" stroke-width="1.5"></path><path d="M675.29 709.59L675.29 709.59" stroke="rgba(97, 97, 98, 1)" stroke-width="1.5"></path><path d="M675.29 709.59L821.77 658.67" stroke="rgba(97, 97, 98, 1)" stroke-width="1.5"></path><path d="M816.36 191.28L816.36 191.28" stroke="rgba(97, 97, 98, 1)" stroke-width="1.5"></path><path d="M816.36 191.28L992.3 203.15" stroke="rgba(97, 97, 98, 1)" stroke-width="1.5"></path><path d="M816.36 191.28L947.19 71.57" stroke="rgba(97, 97, 98, 1)" stroke-width="1.5"></path><path d="M816.36 191.28L844.27 374.3" stroke="rgba(97, 97, 98, 1)" stroke-width="1.5"></path><path d="M816.36 191.28L650.01 395.78" stroke="rgba(97, 97, 98, 1)" stroke-width="1.5"></path><path d="M816.36 191.28L976.28 407.37" stroke="rgba(97, 97, 98, 1)" stroke-width="1.5"></path><path d="M844.27 374.3L844.27 374.3" stroke="rgba(97, 97, 98, 1)" stroke-width="1.5"></path><path d="M844.27 374.3L822.22 506.26" stroke="rgba(97, 97, 98, 1)" stroke-width="1.5"></path><path d="M844.27 374.3L976.28 407.37" stroke="rgba(97, 97, 98, 1)" stroke-width="1.5"></path><path d="M844.27 374.3L990.16 495.46" stroke="rgba(97, 97, 98, 1)" stroke-width="1.5"></path><path d="M844.27 374.3L674.23 521.71" stroke="rgba(97, 97, 98, 1)" stroke-width="1.5"></path><path d="M822.22 506.26L822.22 506.26" stroke="rgba(97, 97, 98, 1)" stroke-width="1.5"></path><path d="M822.22 506.26L821.77 658.67" stroke="rgba(97, 97, 98, 1)" stroke-width="1.5"></path><path d="M822.22 506.26L990.16 495.46" stroke="rgba(97, 97, 98, 1)" stroke-width="1.5"></path><path d="M822.22 506.26L976.28 407.37" stroke="rgba(97, 97, 98, 1)" stroke-width="1.5"></path><path d="M821.77 658.67L821.77 658.67" stroke="rgba(97, 97, 98, 1)" stroke-width="1.5"></path><path d="M821.77 658.67L979.06 708.56" stroke="rgba(97, 97, 98, 1)" stroke-width="1.5"></path><path d="M821.77 658.67L674.23 521.71" stroke="rgba(97, 97, 98, 1)" stroke-width="1.5"></path><path d="M821.77 658.67L990.16 495.46" stroke="rgba(97, 97, 98, 1)" stroke-width="1.5"></path><path d="M821.77 658.67L1096.89 706.38" stroke="rgba(97, 97, 98, 1)" stroke-width="1.5"></path><path d="M976.66 -98.32L976.66 -98.32" stroke="rgba(97, 97, 98, 1)" stroke-width="1.5"></path><path d="M976.66 -98.32L1125.28 -61.82" stroke="rgba(97, 97, 98, 1)" stroke-width="1.5"></path><path d="M976.66 -98.32L947.19 71.57" stroke="rgba(97, 97, 98, 1)" stroke-width="1.5"></path><path d="M976.66 -98.32L1105.35 46.43" stroke="rgba(97, 97, 98, 1)" stroke-width="1.5"></path><path d="M947.19 71.57L947.19 71.57" stroke="rgba(97, 97, 98, 1)" stroke-width="1.5"></path><path d="M947.19 71.57L992.3 203.15" stroke="rgba(97, 97, 98, 1)" stroke-width="1.5"></path><path d="M947.19 71.57L1105.35 46.43" stroke="rgba(97, 97, 98, 1)" stroke-width="1.5"></path><path d="M947.19 71.57L1099.98 189.47" stroke="rgba(97, 97, 98, 1)" stroke-width="1.5"></path><path d="M992.3 203.15L992.3 203.15" stroke="rgba(97, 97, 98, 1)" stroke-width="1.5"></path><path d="M992.3 203.15L1099.98 189.47" stroke="rgba(97, 97, 98, 1)" stroke-width="1.5"></path><path d="M976.28 407.37L976.28 407.37" stroke="rgba(97, 97, 98, 1)" stroke-width="1.5"></path><path d="M976.28 407.37L990.16 495.46" stroke="rgba(97, 97, 98, 1)" stroke-width="1.5"></path><path d="M976.28 407.37L1102.07 507.71" stroke="rgba(97, 97, 98, 1)" stroke-width="1.5"></path><path d="M990.16 495.46L990.16 495.46" stroke="rgba(97, 97, 98, 1)" stroke-width="1.5"></path><path d="M979.06 708.56L979.06 708.56" stroke="rgba(97, 97, 98, 1)" stroke-width="1.5"></path><path d="M979.06 708.56L1096.89 706.38" stroke="rgba(97, 97, 98, 1)" stroke-width="1.5"></path><path d="M979.06 708.56L990.16 495.46" stroke="rgba(97, 97, 98, 1)" stroke-width="1.5"></path><path d="M979.06 708.56L1102.07 507.71" stroke="rgba(97, 97, 98, 1)" stroke-width="1.5"></path><path d="M979.06 708.56L822.22 506.26" stroke="rgba(97, 97, 98, 1)" stroke-width="1.5"></path><path d="M1125.28 -61.82L1125.28 -61.82" stroke="rgba(97, 97, 98, 1)" stroke-width="1.5"></path><path d="M1125.28 -61.82L1105.35 46.43" stroke="rgba(97, 97, 98, 1)" stroke-width="1.5"></path><path d="M1105.35 46.43L1105.35 46.43" stroke="rgba(97, 97, 98, 1)" stroke-width="1.5"></path><path d="M1105.35 46.43L1099.98 189.47" stroke="rgba(97, 97, 98, 1)" stroke-width="1.5"></path><path d="M1099.98 189.47L1099.98 189.47" stroke="rgba(97, 97, 98, 1)" stroke-width="1.5"></path><path d="M1099.98 189.47L1246.6 216.79" stroke="rgba(97, 97, 98, 1)" stroke-width="1.5"></path><path d="M1102.07 507.71L1102.07 507.71" stroke="rgba(97, 97, 98, 1)" stroke-width="1.5"></path><path d="M1102.07 507.71L990.16 495.46" stroke="rgba(97, 97, 98, 1)" stroke-width="1.5"></path><path d="M1102.07 507.71L1096.89 706.38" stroke="rgba(97, 97, 98, 1)" stroke-width="1.5"></path><path d="M1102.07 507.71L1295.06 561.91" stroke="rgba(97, 97, 98, 1)" stroke-width="1.5"></path><path d="M1096.89 706.38L1096.89 706.38" stroke="rgba(97, 97, 98, 1)" stroke-width="1.5"></path><path d="M1096.89 706.38L1260.88 685.93" stroke="rgba(97, 97, 98, 1)" stroke-width="1.5"></path><path d="M1096.89 706.38L990.16 495.46" stroke="rgba(97, 97, 98, 1)" stroke-width="1.5"></path><path d="M1096.89 706.38L1295.06 561.91" stroke="rgba(97, 97, 98, 1)" stroke-width="1.5"></path><path d="M1281.47 -92.31L1281.47 -92.31" stroke="rgba(97, 97, 98, 1)" stroke-width="1.5"></path><path d="M1281.47 -92.31L1125.28 -61.82" stroke="rgba(97, 97, 98, 1)" stroke-width="1.5"></path><path d="M1281.47 -92.31L1437.35 -38.19" stroke="rgba(97, 97, 98, 1)" stroke-width="1.5"></path><path d="M1281.47 -92.31L1304.3 104.98" stroke="rgba(97, 97, 98, 1)" stroke-width="1.5"></path><path d="M1281.47 -92.31L1105.35 46.43" stroke="rgba(97, 97, 98, 1)" stroke-width="1.5"></path><path d="M1304.3 104.98L1304.3 104.98" stroke="rgba(97, 97, 98, 1)" stroke-width="1.5"></path><path d="M1304.3 104.98L1246.6 216.79" stroke="rgba(97, 97, 98, 1)" stroke-width="1.5"></path><path d="M1304.3 104.98L1434.63 101.03" stroke="rgba(97, 97, 98, 1)" stroke-width="1.5"></path><path d="M1304.3 104.98L1437.35 -38.19" stroke="rgba(97, 97, 98, 1)" stroke-width="1.5"></path><path d="M1246.6 216.79L1246.6 216.79" stroke="rgba(97, 97, 98, 1)" stroke-width="1.5"></path><path d="M1246.6 216.79L1295.39 371.65" stroke="rgba(97, 97, 98, 1)" stroke-width="1.5"></path><path d="M1246.6 216.79L1434.63 101.03" stroke="rgba(97, 97, 98, 1)" stroke-width="1.5"></path><path d="M1246.6 216.79L1105.35 46.43" stroke="rgba(97, 97, 98, 1)" stroke-width="1.5"></path><path d="M1295.39 371.65L1295.39 371.65" stroke="rgba(97, 97, 98, 1)" stroke-width="1.5"></path><path d="M1295.39 371.65L1458.92 366.18" stroke="rgba(97, 97, 98, 1)" stroke-width="1.5"></path><path d="M1295.39 371.65L1420.33 490.35" stroke="rgba(97, 97, 98, 1)" stroke-width="1.5"></path><path d="M1295.39 371.65L1295.06 561.91" stroke="rgba(97, 97, 98, 1)" stroke-width="1.5"></path><path d="M1295.39 371.65L1102.07 507.71" stroke="rgba(97, 97, 98, 1)" stroke-width="1.5"></path><path d="M1295.39 371.65L1541.54 405.16" stroke="rgba(97, 97, 98, 1)" stroke-width="1.5"></path><path d="M1295.06 561.91L1295.06 561.91" stroke="rgba(97, 97, 98, 1)" stroke-width="1.5"></path><path d="M1295.06 561.91L1260.88 685.93" stroke="rgba(97, 97, 98, 1)" stroke-width="1.5"></path><path d="M1295.06 561.91L1420.33 490.35" stroke="rgba(97, 97, 98, 1)" stroke-width="1.5"></path><path d="M1295.06 561.91L1404.66 696.49" stroke="rgba(97, 97, 98, 1)" stroke-width="1.5"></path><path d="M1260.88 685.93L1260.88 685.93" stroke="rgba(97, 97, 98, 1)" stroke-width="1.5"></path><path d="M1260.88 685.93L1404.66 696.49" stroke="rgba(97, 97, 98, 1)" stroke-width="1.5"></path><path d="M1437.35 -38.19L1437.35 -38.19" stroke="rgba(97, 97, 98, 1)" stroke-width="1.5"></path><path d="M1437.35 -38.19L1434.63 101.03" stroke="rgba(97, 97, 98, 1)" stroke-width="1.5"></path><path d="M1437.35 -38.19L1577.93 92.51" stroke="rgba(97, 97, 98, 1)" stroke-width="1.5"></path><path d="M1437.35 -38.19L1125.28 -61.82" stroke="rgba(97, 97, 98, 1)" stroke-width="1.5"></path><path d="M1434.63 101.03L1434.63 101.03" stroke="rgba(97, 97, 98, 1)" stroke-width="1.5"></path><path d="M1458.92 366.18L1458.92 366.18" stroke="rgba(97, 97, 98, 1)" stroke-width="1.5"></path><path d="M1458.92 366.18L1541.54 405.16" stroke="rgba(97, 97, 98, 1)" stroke-width="1.5"></path><path d="M1458.92 366.18L1420.33 490.35" stroke="rgba(97, 97, 98, 1)" stroke-width="1.5"></path><path d="M1420.33 490.35L1420.33 490.35" stroke="rgba(97, 97, 98, 1)" stroke-width="1.5"></path><path d="M1420.33 490.35L1541.54 405.16" stroke="rgba(97, 97, 98, 1)" stroke-width="1.5"></path><path d="M1404.66 696.49L1404.66 696.49" stroke="rgba(97, 97, 98, 1)" stroke-width="1.5"></path><path d="M1404.66 696.49L1558.31 700.82" stroke="rgba(97, 97, 98, 1)" stroke-width="1.5"></path><path d="M1404.66 696.49L1420.33 490.35" stroke="rgba(97, 97, 98, 1)" stroke-width="1.5"></path><path d="M1404.66 696.49L1570.82 528.59" stroke="rgba(97, 97, 98, 1)" stroke-width="1.5"></path><path d="M1404.66 696.49L1096.89 706.38" stroke="rgba(97, 97, 98, 1)" stroke-width="1.5"></path><path d="M1577.93 92.51L1577.93 92.51" stroke="rgba(97, 97, 98, 1)" stroke-width="1.5"></path><path d="M1577.93 92.51L1434.63 101.03" stroke="rgba(97, 97, 98, 1)" stroke-width="1.5"></path><path d="M1577.93 92.51L1572.39 255.45" stroke="rgba(97, 97, 98, 1)" stroke-width="1.5"></path><path d="M1577.93 92.51L1304.3 104.98" stroke="rgba(97, 97, 98, 1)" stroke-width="1.5"></path><path d="M1577.93 92.51L1458.92 366.18" stroke="rgba(97, 97, 98, 1)" stroke-width="1.5"></path><path d="M1572.39 255.45L1572.39 255.45" stroke="rgba(97, 97, 98, 1)" stroke-width="1.5"></path><path d="M1572.39 255.45L1541.54 405.16" stroke="rgba(97, 97, 98, 1)" stroke-width="1.5"></path><path d="M1572.39 255.45L1458.92 366.18" stroke="rgba(97, 97, 98, 1)" stroke-width="1.5"></path><path d="M1541.54 405.16L1541.54 405.16" stroke="rgba(97, 97, 98, 1)" stroke-width="1.5"></path><path d="M1541.54 405.16L1570.82 528.59" stroke="rgba(97, 97, 98, 1)" stroke-width="1.5"></path><path d="M1570.82 528.59L1570.82 528.59" stroke="rgba(97, 97, 98, 1)" stroke-width="1.5"></path><path d="M1570.82 528.59L1420.33 490.35" stroke="rgba(97, 97, 98, 1)" stroke-width="1.5"></path><path d="M1570.82 528.59L1558.31 700.82" stroke="rgba(97, 97, 98, 1)" stroke-width="1.5"></path><path d="M1570.82 528.59L1458.92 366.18" stroke="rgba(97, 97, 98, 1)" stroke-width="1.5"></path><path d="M1570.82 528.59L1572.39 255.45" stroke="rgba(97, 97, 98, 1)" stroke-width="1.5"></path><path d="M1558.31 700.82L1558.31 700.82" stroke="rgba(97, 97, 98, 1)" stroke-width="1.5"></path><path d="M1558.31 700.82L1420.33 490.35" stroke="rgba(97, 97, 98, 1)" stroke-width="1.5"></path><path d="M1558.31 700.82L1541.54 405.16" stroke="rgba(97, 97, 98, 1)" stroke-width="1.5"></path><path d="M1558.31 700.82L1295.06 561.91" stroke="rgba(97, 97, 98, 1)" stroke-width="1.5"></path><circle r="5" cx="-79.23" cy="382.05" fill="rgba(97, 97, 98, 1)"></circle><circle r="5" cx="-71.37" cy="514.64" fill="rgba(97, 97, 98, 1)"></circle><circle r="5" cx="-50.27" cy="709.71" fill="rgba(97, 97, 98, 1)"></circle><circle r="5" cx="80.4" cy="338.36" fill="rgba(97, 97, 98, 1)"></circle><circle r="5" cx="111.02" cy="497.23" fill="rgba(97, 97, 98, 1)"></circle><circle r="5" cx="63.96" cy="681.03" fill="rgba(97, 97, 98, 1)"></circle><circle r="5" cx="206.84" cy="396.73" fill="rgba(97, 97, 98, 1)"></circle><circle r="5" cx="190.42" cy="544.81" fill="rgba(97, 97, 98, 1)"></circle><circle r="5" cx="188.15" cy="664.38" fill="rgba(97, 97, 98, 1)"></circle><circle r="5" cx="344.84" cy="354.74" fill="rgba(97, 97, 98, 1)"></circle><circle r="5" cx="404.91" cy="510.3" fill="rgba(97, 97, 98, 1)"></circle><circle r="5" cx="390.12" cy="685.86" fill="rgba(97, 97, 98, 1)"></circle><circle r="5" cx="533.01" cy="373.72" fill="rgba(97, 97, 98, 1)"></circle><circle r="5" cx="528.25" cy="669.72" fill="rgba(97, 97, 98, 1)"></circle><circle r="5" cx="650.01" cy="395.78" fill="rgba(97, 97, 98, 1)"></circle><circle r="5" cx="674.23" cy="521.71" fill="rgba(97, 97, 98, 1)"></circle><circle r="5" cx="675.29" cy="709.59" fill="rgba(97, 97, 98, 1)"></circle><circle r="5" cx="816.36" cy="191.28" fill="rgba(97, 97, 98, 1)"></circle><circle r="5" cx="844.27" cy="374.3" fill="rgba(97, 97, 98, 1)"></circle><circle r="5" cx="822.22" cy="506.26" fill="rgba(97, 97, 98, 1)"></circle><circle r="5" cx="821.77" cy="658.67" fill="rgba(97, 97, 98, 1)"></circle><circle r="5" cx="976.66" cy="-98.32" fill="rgba(97, 97, 98, 1)"></circle><circle r="5" cx="947.19" cy="71.57" fill="rgba(97, 97, 98, 1)"></circle><circle r="5" cx="992.3" cy="203.15" fill="rgba(97, 97, 98, 1)"></circle><circle r="5" cx="976.28" cy="407.37" fill="rgba(97, 97, 98, 1)"></circle><circle r="5" cx="990.16" cy="495.46" fill="rgba(97, 97, 98, 1)"></circle><circle r="5" cx="979.06" cy="708.56" fill="rgba(97, 97, 98, 1)"></circle><circle r="5" cx="1125.28" cy="-61.82" fill="rgba(97, 97, 98, 1)"></circle><circle r="5" cx="1105.35" cy="46.43" fill="rgba(97, 97, 98, 1)"></circle><circle r="5" cx="1099.98" cy="189.47" fill="rgba(97, 97, 98, 1)"></circle><circle r="5" cx="1102.07" cy="507.71" fill="rgba(97, 97, 98, 1)"></circle><circle r="5" cx="1096.89" cy="706.38" fill="rgba(97, 97, 98, 1)"></circle><circle r="5" cx="1281.47" cy="-92.31" fill="rgba(97, 97, 98, 1)"></circle><circle r="5" cx="1304.3" cy="104.98" fill="rgba(97, 97, 98, 1)"></circle><circle r="5" cx="1246.6" cy="216.79" fill="rgba(97, 97, 98, 1)"></circle><circle r="5" cx="1295.39" cy="371.65" fill="rgba(97, 97, 98, 1)"></circle><circle r="5" cx="1295.06" cy="561.91" fill="rgba(97, 97, 98, 1)"></circle><circle r="5" cx="1260.88" cy="685.93" fill="rgba(97, 97, 98, 1)"></circle><circle r="5" cx="1437.35" cy="-38.19" fill="rgba(97, 97, 98, 1)"></circle><circle r="5" cx="1434.63" cy="101.03" fill="rgba(97, 97, 98, 1)"></circle><circle r="5" cx="1458.92" cy="366.18" fill="rgba(97, 97, 98, 1)"></circle><circle r="5" cx="1420.33" cy="490.35" fill="rgba(97, 97, 98, 1)"></circle><circle r="5" cx="1404.66" cy="696.49" fill="rgba(97, 97, 98, 1)"></circle><circle r="5" cx="1577.93" cy="92.51" fill="rgba(97, 97, 98, 1)"></circle><circle r="5" cx="1572.39" cy="255.45" fill="rgba(97, 97, 98, 1)"></circle><circle r="5" cx="1541.54" cy="405.16" fill="rgba(97, 97, 98, 1)"></circle><circle r="5" cx="1570.82" cy="528.59" fill="rgba(97, 97, 98, 1)"></circle><circle r="5" cx="1558.31" cy="700.82" fill="rgba(97, 97, 98, 1)"></circle><path d="M-80.14 683.44L-80.14 683.44" stroke="hsl(0, 0%, 87.7%)" stroke-width="1.5"></path><path d="M-80.14 683.44L-106.19 501.82" stroke="hsl(0, 0%, 87.7%)" stroke-width="1.5"></path><path d="M-80.14 683.44L106.45 671.82" stroke="hsl(0, 0%, 87.7%)" stroke-width="1.5"></path><path d="M-80.14 683.44L74.13 561.88" stroke="hsl(0, 0%, 87.7%)" stroke-width="1.5"></path><path d="M-80.14 683.44L220.21 688.93" stroke="hsl(0, 0%, 87.7%)" stroke-width="1.5"></path><path d="M-80.14 683.44L251.72 547.96" stroke="hsl(0, 0%, 87.7%)" stroke-width="1.5"></path><path d="M-80.14 683.44L340.53 517.6" stroke="hsl(0, 0%, 87.7%)" stroke-width="1.5"></path><path d="M74.13 561.88L74.13 561.88" stroke="hsl(0, 0%, 87.7%)" stroke-width="1.5"></path><path d="M74.13 561.88L106.45 671.82" stroke="hsl(0, 0%, 87.7%)" stroke-width="1.5"></path><path d="M74.13 561.88L251.72 547.96" stroke="hsl(0, 0%, 87.7%)" stroke-width="1.5"></path><path d="M74.13 561.88L-106.19 501.82" stroke="hsl(0, 0%, 87.7%)" stroke-width="1.5"></path><path d="M74.13 561.88L220.21 688.93" stroke="hsl(0, 0%, 87.7%)" stroke-width="1.5"></path><path d="M74.13 561.88L340.53 517.6" stroke="hsl(0, 0%, 87.7%)" stroke-width="1.5"></path><path d="M662.59 532.72L662.59 532.72" stroke="hsl(0, 0%, 87.7%)" stroke-width="1.5"></path><path d="M662.59 532.72L707.96 642.63" stroke="hsl(0, 0%, 87.7%)" stroke-width="1.5"></path><path d="M944.8 388.34L944.8 388.34" stroke="hsl(0, 0%, 87.7%)" stroke-width="1.5"></path><path d="M944.8 388.34L827.93 356.52" stroke="hsl(0, 0%, 87.7%)" stroke-width="1.5"></path><path d="M944.8 388.34L944.17 510.74" stroke="hsl(0, 0%, 87.7%)" stroke-width="1.5"></path><path d="M1115.2 548.29L1115.2 548.29" stroke="hsl(0, 0%, 87.7%)" stroke-width="1.5"></path><path d="M1115.2 548.29L1091.47 693.35" stroke="hsl(0, 0%, 87.7%)" stroke-width="1.5"></path><path d="M1115.2 548.29L1249.74 643.98" stroke="hsl(0, 0%, 87.7%)" stroke-width="1.5"></path><path d="M1115.2 548.29L944.17 510.74" stroke="hsl(0, 0%, 87.7%)" stroke-width="1.5"></path><path d="M-106.19 501.82L-106.19 501.82" stroke="hsl(0, 0%, 87.7%)" stroke-width="1.5"></path><path d="M-106.19 501.82L106.45 671.82" stroke="hsl(0, 0%, 87.7%)" stroke-width="1.5"></path><path d="M-106.19 501.82L251.72 547.96" stroke="hsl(0, 0%, 87.7%)" stroke-width="1.5"></path><path d="M-106.19 501.82L220.21 688.93" stroke="hsl(0, 0%, 87.7%)" stroke-width="1.5"></path><path d="M106.45 671.82L106.45 671.82" stroke="hsl(0, 0%, 87.7%)" stroke-width="1.5"></path><path d="M106.45 671.82L220.21 688.93" stroke="hsl(0, 0%, 87.7%)" stroke-width="1.5"></path><path d="M106.45 671.82L251.72 547.96" stroke="hsl(0, 0%, 87.7%)" stroke-width="1.5"></path><path d="M251.72 547.96L251.72 547.96" stroke="hsl(0, 0%, 87.7%)" stroke-width="1.5"></path><path d="M251.72 547.96L340.53 517.6" stroke="hsl(0, 0%, 87.7%)" stroke-width="1.5"></path><path d="M251.72 547.96L220.21 688.93" stroke="hsl(0, 0%, 87.7%)" stroke-width="1.5"></path><path d="M220.21 688.93L220.21 688.93" stroke="hsl(0, 0%, 87.7%)" stroke-width="1.5"></path><path d="M220.21 688.93L383.92 704.12" stroke="hsl(0, 0%, 87.7%)" stroke-width="1.5"></path><path d="M340.53 517.6L340.53 517.6" stroke="hsl(0, 0%, 87.7%)" stroke-width="1.5"></path><path d="M340.53 517.6L520.36 507.42" stroke="hsl(0, 0%, 87.7%)" stroke-width="1.5"></path><path d="M340.53 517.6L383.92 704.12" stroke="hsl(0, 0%, 87.7%)" stroke-width="1.5"></path><path d="M340.53 517.6L487.87 652.02" stroke="hsl(0, 0%, 87.7%)" stroke-width="1.5"></path><path d="M383.92 704.12L383.92 704.12" stroke="hsl(0, 0%, 87.7%)" stroke-width="1.5"></path><path d="M383.92 704.12L487.87 652.02" stroke="hsl(0, 0%, 87.7%)" stroke-width="1.5"></path><path d="M520.36 507.42L520.36 507.42" stroke="hsl(0, 0%, 87.7%)" stroke-width="1.5"></path><path d="M520.36 507.42L662.59 532.72" stroke="hsl(0, 0%, 87.7%)" stroke-width="1.5"></path><path d="M520.36 507.42L487.87 652.02" stroke="hsl(0, 0%, 87.7%)" stroke-width="1.5"></path><path d="M520.36 507.42L707.96 642.63" stroke="hsl(0, 0%, 87.7%)" stroke-width="1.5"></path><path d="M520.36 507.42L383.92 704.12" stroke="hsl(0, 0%, 87.7%)" stroke-width="1.5"></path><path d="M487.87 652.02L487.87 652.02" stroke="hsl(0, 0%, 87.7%)" stroke-width="1.5"></path><path d="M487.87 652.02L662.59 532.72" stroke="hsl(0, 0%, 87.7%)" stroke-width="1.5"></path><path d="M487.87 652.02L707.96 642.63" stroke="hsl(0, 0%, 87.7%)" stroke-width="1.5"></path><path d="M487.87 652.02L251.72 547.96" stroke="hsl(0, 0%, 87.7%)" stroke-width="1.5"></path><path d="M707.96 642.63L707.96 642.63" stroke="hsl(0, 0%, 87.7%)" stroke-width="1.5"></path><path d="M707.96 642.63L859.91 669.02" stroke="hsl(0, 0%, 87.7%)" stroke-width="1.5"></path><path d="M707.96 642.63L862.4 559.32" stroke="hsl(0, 0%, 87.7%)" stroke-width="1.5"></path><path d="M827.93 356.52L827.93 356.52" stroke="hsl(0, 0%, 87.7%)" stroke-width="1.5"></path><path d="M827.93 356.52L944.17 510.74" stroke="hsl(0, 0%, 87.7%)" stroke-width="1.5"></path><path d="M827.93 356.52L1004.93 255.4" stroke="hsl(0, 0%, 87.7%)" stroke-width="1.5"></path><path d="M827.93 356.52L862.4 559.32" stroke="hsl(0, 0%, 87.7%)" stroke-width="1.5"></path><path d="M862.4 559.32L862.4 559.32" stroke="hsl(0, 0%, 87.7%)" stroke-width="1.5"></path><path d="M862.4 559.32L944.17 510.74" stroke="hsl(0, 0%, 87.7%)" stroke-width="1.5"></path><path d="M862.4 559.32L859.91 669.02" stroke="hsl(0, 0%, 87.7%)" stroke-width="1.5"></path><path d="M862.4 559.32L972.69 686.26" stroke="hsl(0, 0%, 87.7%)" stroke-width="1.5"></path><path d="M859.91 669.02L859.91 669.02" stroke="hsl(0, 0%, 87.7%)" stroke-width="1.5"></path><path d="M859.91 669.02L972.69 686.26" stroke="hsl(0, 0%, 87.7%)" stroke-width="1.5"></path><path d="M859.91 669.02L944.17 510.74" stroke="hsl(0, 0%, 87.7%)" stroke-width="1.5"></path><path d="M1004.93 255.4L1004.93 255.4" stroke="hsl(0, 0%, 87.7%)" stroke-width="1.5"></path><path d="M1004.93 255.4L1107.53 211.31" stroke="hsl(0, 0%, 87.7%)" stroke-width="1.5"></path><path d="M1004.93 255.4L944.8 388.34" stroke="hsl(0, 0%, 87.7%)" stroke-width="1.5"></path><path d="M1004.93 255.4L944.17 510.74" stroke="hsl(0, 0%, 87.7%)" stroke-width="1.5"></path><path d="M1004.93 255.4L1298.12 229.6" stroke="hsl(0, 0%, 87.7%)" stroke-width="1.5"></path><path d="M944.17 510.74L944.17 510.74" stroke="hsl(0, 0%, 87.7%)" stroke-width="1.5"></path><path d="M944.17 510.74L972.69 686.26" stroke="hsl(0, 0%, 87.7%)" stroke-width="1.5"></path><path d="M972.69 686.26L972.69 686.26" stroke="hsl(0, 0%, 87.7%)" stroke-width="1.5"></path><path d="M972.69 686.26L1091.47 693.35" stroke="hsl(0, 0%, 87.7%)" stroke-width="1.5"></path><path d="M972.69 686.26L1115.2 548.29" stroke="hsl(0, 0%, 87.7%)" stroke-width="1.5"></path><path d="M972.69 686.26L707.96 642.63" stroke="hsl(0, 0%, 87.7%)" stroke-width="1.5"></path><path d="M1107.53 211.31L1107.53 211.31" stroke="hsl(0, 0%, 87.7%)" stroke-width="1.5"></path><path d="M1091.47 693.35L1091.47 693.35" stroke="hsl(0, 0%, 87.7%)" stroke-width="1.5"></path><path d="M1091.47 693.35L1249.74 643.98" stroke="hsl(0, 0%, 87.7%)" stroke-width="1.5"></path><path d="M1091.47 693.35L859.91 669.02" stroke="hsl(0, 0%, 87.7%)" stroke-width="1.5"></path><path d="M1091.47 693.35L944.17 510.74" stroke="hsl(0, 0%, 87.7%)" stroke-width="1.5"></path><path d="M1256.14 -110.96L1256.14 -110.96" stroke="hsl(0, 0%, 87.7%)" stroke-width="1.5"></path><path d="M1256.14 -110.96L1393.48 -100.34" stroke="hsl(0, 0%, 87.7%)" stroke-width="1.5"></path><path d="M1256.14 -110.96L1282.96 70.11" stroke="hsl(0, 0%, 87.7%)" stroke-width="1.5"></path><path d="M1256.14 -110.96L1538.51 -42.7" stroke="hsl(0, 0%, 87.7%)" stroke-width="1.5"></path><path d="M1256.14 -110.96L1450.73 106.34" stroke="hsl(0, 0%, 87.7%)" stroke-width="1.5"></path><path d="M1256.14 -110.96L1561.28 43.6" stroke="hsl(0, 0%, 87.7%)" stroke-width="1.5"></path><path d="M1282.96 70.11L1282.96 70.11" stroke="hsl(0, 0%, 87.7%)" stroke-width="1.5"></path><path d="M1282.96 70.11L1298.12 229.6" stroke="hsl(0, 0%, 87.7%)" stroke-width="1.5"></path><path d="M1282.96 70.11L1450.73 106.34" stroke="hsl(0, 0%, 87.7%)" stroke-width="1.5"></path><path d="M1282.96 70.11L1393.48 -100.34" stroke="hsl(0, 0%, 87.7%)" stroke-width="1.5"></path><path d="M1298.12 229.6L1298.12 229.6" stroke="hsl(0, 0%, 87.7%)" stroke-width="1.5"></path><path d="M1298.12 229.6L1449.7 240.73" stroke="hsl(0, 0%, 87.7%)" stroke-width="1.5"></path><path d="M1298.12 229.6L1107.53 211.31" stroke="hsl(0, 0%, 87.7%)" stroke-width="1.5"></path><path d="M1298.12 229.6L1450.73 106.34" stroke="hsl(0, 0%, 87.7%)" stroke-width="1.5"></path><path d="M1249.74 643.98L1249.74 643.98" stroke="hsl(0, 0%, 87.7%)" stroke-width="1.5"></path><path d="M1393.48 -100.34L1393.48 -100.34" stroke="hsl(0, 0%, 87.7%)" stroke-width="1.5"></path><path d="M1393.48 -100.34L1538.51 -42.7" stroke="hsl(0, 0%, 87.7%)" stroke-width="1.5"></path><path d="M1393.48 -100.34L1450.73 106.34" stroke="hsl(0, 0%, 87.7%)" stroke-width="1.5"></path><path d="M1393.48 -100.34L1561.28 43.6" stroke="hsl(0, 0%, 87.7%)" stroke-width="1.5"></path><path d="M1393.48 -100.34L1298.12 229.6" stroke="hsl(0, 0%, 87.7%)" stroke-width="1.5"></path><path d="M1450.73 106.34L1450.73 106.34" stroke="hsl(0, 0%, 87.7%)" stroke-width="1.5"></path><path d="M1450.73 106.34L1561.28 43.6" stroke="hsl(0, 0%, 87.7%)" stroke-width="1.5"></path><path d="M1450.73 106.34L1449.7 240.73" stroke="hsl(0, 0%, 87.7%)" stroke-width="1.5"></path><path d="M1450.73 106.34L1538.51 -42.7" stroke="hsl(0, 0%, 87.7%)" stroke-width="1.5"></path><path d="M1449.7 240.73L1449.7 240.73" stroke="hsl(0, 0%, 87.7%)" stroke-width="1.5"></path><path d="M1418.96 650.95L1418.96 650.95" stroke="hsl(0, 0%, 87.7%)" stroke-width="1.5"></path><path d="M1418.96 650.95L1578.33 666.33" stroke="hsl(0, 0%, 87.7%)" stroke-width="1.5"></path><path d="M1418.96 650.95L1249.74 643.98" stroke="hsl(0, 0%, 87.7%)" stroke-width="1.5"></path><path d="M1418.96 650.95L1563.07 505.05" stroke="hsl(0, 0%, 87.7%)" stroke-width="1.5"></path><path d="M1418.96 650.95L1555 393.89" stroke="hsl(0, 0%, 87.7%)" stroke-width="1.5"></path><path d="M1538.51 -42.7L1538.51 -42.7" stroke="hsl(0, 0%, 87.7%)" stroke-width="1.5"></path><path d="M1538.51 -42.7L1561.28 43.6" stroke="hsl(0, 0%, 87.7%)" stroke-width="1.5"></path><path d="M1538.51 -42.7L1282.96 70.11" stroke="hsl(0, 0%, 87.7%)" stroke-width="1.5"></path><path d="M1561.28 43.6L1561.28 43.6" stroke="hsl(0, 0%, 87.7%)" stroke-width="1.5"></path><path d="M1561.28 43.6L1449.7 240.73" stroke="hsl(0, 0%, 87.7%)" stroke-width="1.5"></path><path d="M1561.28 43.6L1282.96 70.11" stroke="hsl(0, 0%, 87.7%)" stroke-width="1.5"></path><path d="M1561.28 43.6L1298.12 229.6" stroke="hsl(0, 0%, 87.7%)" stroke-width="1.5"></path><path d="M1555 393.89L1555 393.89" stroke="hsl(0, 0%, 87.7%)" stroke-width="1.5"></path><path d="M1555 393.89L1563.07 505.05" stroke="hsl(0, 0%, 87.7%)" stroke-width="1.5"></path><path d="M1555 393.89L1449.7 240.73" stroke="hsl(0, 0%, 87.7%)" stroke-width="1.5"></path><path d="M1555 393.89L1578.33 666.33" stroke="hsl(0, 0%, 87.7%)" stroke-width="1.5"></path><path d="M1563.07 505.05L1563.07 505.05" stroke="hsl(0, 0%, 87.7%)" stroke-width="1.5"></path><path d="M1563.07 505.05L1578.33 666.33" stroke="hsl(0, 0%, 87.7%)" stroke-width="1.5"></path><path d="M1563.07 505.05L1449.7 240.73" stroke="hsl(0, 0%, 87.7%)" stroke-width="1.5"></path><path d="M1578.33 666.33L1578.33 666.33" stroke="hsl(0, 0%, 87.7%)" stroke-width="1.5"></path><path d="M1578.33 666.33L1249.74 643.98" stroke="hsl(0, 0%, 87.7%)" stroke-width="1.5"></path><circle r="25" cx="-80.14" cy="683.44" fill="url(#SvgjsRadialGradient1015)"></circle><circle r="25" cx="74.13" cy="561.88" fill="url(#SvgjsRadialGradient1015)"></circle><circle r="25" cx="662.59" cy="532.72" fill="url(#SvgjsRadialGradient1015)"></circle><circle r="25" cx="944.8" cy="388.34" fill="url(#SvgjsRadialGradient1015)"></circle><circle r="25" cx="1115.2" cy="548.29" fill="url(#SvgjsRadialGradient1015)"></circle><circle r="5" cx="-106.19" cy="501.82" fill="#d6d6d6"></circle><circle r="5" cx="106.45" cy="671.82" fill="#d6d6d6"></circle><circle r="5" cx="251.72" cy="547.96" fill="#d6d6d6"></circle><circle r="5" cx="220.21" cy="688.93" fill="#d6d6d6"></circle><circle r="5" cx="340.53" cy="517.6" fill="#d6d6d6"></circle><circle r="5" cx="383.92" cy="704.12" fill="#d6d6d6"></circle><circle r="5" cx="520.36" cy="507.42" fill="#d6d6d6"></circle><circle r="5" cx="487.87" cy="652.02" fill="#d6d6d6"></circle><circle r="5" cx="707.96" cy="642.63" fill="#d6d6d6"></circle><circle r="5" cx="827.93" cy="356.52" fill="#d6d6d6"></circle><circle r="5" cx="862.4" cy="559.32" fill="#d6d6d6"></circle><circle r="5" cx="859.91" cy="669.02" fill="#d6d6d6"></circle><circle r="5" cx="1004.93" cy="255.4" fill="#d6d6d6"></circle><circle r="5" cx="944.17" cy="510.74" fill="#d6d6d6"></circle><circle r="5" cx="972.69" cy="686.26" fill="#d6d6d6"></circle><circle r="5" cx="1107.53" cy="211.31" fill="#d6d6d6"></circle><circle r="5" cx="1091.47" cy="693.35" fill="#d6d6d6"></circle><circle r="5" cx="1256.14" cy="-110.96" fill="#d6d6d6"></circle><circle r="5" cx="1282.96" cy="70.11" fill="#d6d6d6"></circle><circle r="5" cx="1298.12" cy="229.6" fill="#d6d6d6"></circle><circle r="5" cx="1249.74" cy="643.98" fill="#d6d6d6"></circle><circle r="5" cx="1393.48" cy="-100.34" fill="#d6d6d6"></circle><circle r="5" cx="1450.73" cy="106.34" fill="#d6d6d6"></circle><circle r="5" cx="1449.7" cy="240.73" fill="#d6d6d6"></circle><circle r="5" cx="1418.96" cy="650.95" fill="#d6d6d6"></circle><circle r="5" cx="1538.51" cy="-42.7" fill="#d6d6d6"></circle><circle r="5" cx="1561.28" cy="43.6" fill="#d6d6d6"></circle><circle r="5" cx="1555" cy="393.89" fill="#d6d6d6"></circle><circle r="5" cx="1563.07" cy="505.05" fill="#d6d6d6"></circle><circle r="5" cx="1578.33" cy="666.33" fill="#d6d6d6"></circle></g><defs><mask id="SvgjsMask1014"><rect width="1440" height="560" fill="#ffffff"></rect></mask><radialGradient id="SvgjsRadialGradient1015"><stop stop-color="#ffffff" offset="0.1"></stop><stop stop-color="rgba(172, 172, 172, 1)" offset="0.2"></stop><stop stop-color="rgba(172, 172, 172, 0)" offset="1"></stop></radialGradient></defs></svg>